Coordinates
version=1
nRows=12
nColumns=24
inDegrees=yes

Units are S.I. units (second, meters, Newtons, ...)
Angles are in degrees.

endheader
time	pelvis_tilt	pelvis_list	pelvis_rotation	pelvis_tx	pelvis_ty	pelvis_tz	hip_flexion_r	hip_adduction_r	hip_rotation_r	knee_angle_r	ankle_angle_r	subtalar_angle_r	mtp_angle_r	hip_flexion_l	hip_adduction_l	hip_rotation_l	knee_angle_l	ankle_angle_l	subtalar_angle_l	mtp_angle_l	lumbar_extension	lumbar_bending	lumbar_rotation
      2.17000000	      2.13106784	      1.17960872	     -0.59249636	      0.92415306	      0.88955837	     -0.01284691	     -1.99613640	     -2.05321615	     -1.35992881	    -59.36983118	     -7.14066256	     -4.51413474	     52.09740820	     18.79580535	      5.25812959	     -1.58247024	    -23.95900335	     12.50628357	     -5.85506859	     25.51051146	    -11.53240034	     -4.75417520	     -3.59856652
      2.17500000	      2.18987985	      1.48693987	     -0.68680997	      0.93128310	      0.89044207	     -0.01291561	     -0.92712893	     -2.33780436	     -1.11715962	    -60.96619803	     -7.18411832	     -5.21216890	     51.76996881	     18.14431756	      5.54967573	     -1.79134004	    -23.82242575	     13.02677697	     -5.60744034	     25.45498036	    -11.60306044	     -5.14769035	     -3.63421863
      2.18000000	      2.24064389	      1.72904242	     -0.74721227	      0.93836163	      0.89135944	     -0.01296146	      0.14470180	     -2.53560884	     -0.90210551	    -62.48835188	     -6.79400462	     -5.50568244	     49.57571398	     17.49934045	      5.76673795	     -1.99515178	    -23.69846825	     13.72031159	     -5.02630786	     24.61509230	    -11.67022792	     -5.46587841	     -3.70406335
      2.18500000	      2.32544018	      1.96604855	     -0.85757556	      0.94544980	      0.89242949	     -0.01299016	      1.17863834	     -2.73594845	     -0.66286936	    -63.89355721	     -6.33605126	     -5.82635906	     48.38701042	     16.73942600	      5.98742503	     -2.17809186	    -23.40820189	     14.23802462	     -4.70280896	     24.06900375	    -11.76640669	     -5.77782828	     -3.67505448
      2.19000000	      2.40047559	      2.16443838	     -0.93485051	      0.95252308	      0.89356291	     -0.01304266	      2.20555873	     -2.88863650	     -0.47063268	    -65.16824710	     -5.83713553	     -6.22172574	     48.21034069	     15.95327043	      6.18566979	     -2.29129905	    -23.03469417	     14.59622979	     -4.54376396	     24.01991397	    -11.85303442	     -6.03997928	     -3.72835407
      2.19500000	      2.52232748	      2.27706485	     -1.04595458	      0.95957504	      0.89479378	     -0.01298706	      3.17410714	     -2.93010367	     -0.24306857	    -66.34648410	     -5.00218552	     -6.26772127	     46.35435447	     15.11675473	      6.26483119	     -2.49220821	    -22.68416571	     15.19064698	     -3.99051422	     23.29598558	    -11.98753088	     -6.21307090	     -3.67989683
      2.20000000	      2.58733239	      2.40759841	     -1.17458303	      0.96661245	      0.89599428	     -0.01293321	      4.21351617	     -2.99691187	     -0.02137564	    -67.42846738	     -4.27634631	     -6.47865092	     46.24677551	     14.29497763	      6.38248016	     -2.64661277	    -22.21354029	     15.50244089	     -3.84418638	     23.24797343	    -12.05697066	     -6.40414496	     -3.68054243
      2.20500000	      2.69674115	      2.44083874	     -1.34965247	      0.97367382	      0.89731556	     -0.01276915	      5.18193156	     -2.93200735	      0.25265966	    -68.37604318	     -3.36062612	     -6.51601014	     45.71348693	     13.40808380	      6.37598201	     -2.88453475	    -21.72915220	     15.92236359	     -3.48960816	     23.03455907	    -12.16453808	     -6.49247923	     -3.58909047
      2.21000000	      2.83079812	      2.49484860	     -1.43314653	      0.98075542	      0.89867075	     -0.01273922	      6.09596289	     -2.92093701	      0.37414555	    -69.22728976	     -2.34392464	     -6.49453353	     44.08916338	     12.46730482	      6.42647421	     -2.97922859	    -21.19211637	     16.33878226	     -3.08550838	     22.31913861	    -12.30389076	     -6.58803323	     -3.60434978
      2.21500000	      2.88654018	      2.53187087	     -1.54976060	      0.98780614	      0.89992475	     -0.01267783	      7.10277554	     -2.88511519	      0.52431309	    -69.98455458	     -1.42478489	     -6.58509279	     44.07790377	     11.59075761	      6.46374836	     -3.07304303	    -20.59288824	     16.56057668	     -2.92720664	     22.28280397	    -12.35208558	     -6.66393443	     -3.60065327
      2.22000000	      2.99744622	      2.53038919	     -1.70538484	      0.99487884	      0.90126467	     -0.01254295	      8.03161070	     -2.80147894	      0.69238469	    -70.62486139	     -0.45367737	     -6.60807679	     43.94662412	     10.63519124	      6.45336093	     -3.21442297	    -19.96679586	     16.81913715	     -2.67677447	     22.21312307	    -12.45296841	     -6.70394266	     -3.52831035
      2.22500000	      3.20028966	      2.46407407	     -1.82197127	      1.00200084	      0.90275502	     -0.01241347	      8.80940061	     -2.64620765	      0.79042976	    -71.12245803	      0.60466390	     -6.64655024	     42.72795595	      9.55953161	      6.38185768	     -3.32270361	    -19.31678651	     17.12787846	     -2.31295703	     21.71649473	    -12.65959246	     -6.66778494	     -3.49034356
